# xmcd
#
# Track frame offsets: 
#        150
#        14438
#        22238
#        40583
#        63933
#        78473
#        83278
#        91398
#        105685
#        120433
#        133558
#        147183
#        156158
#        168108
#        179548
#        193540
#
# Disc length: 2748 seconds
#
# Revision: 0
# Processed by: cddbd v1.4PL0 Copyright (c) Steve Scherf et al.
# Submitted via: ExactAudioCopy v0.95a3
#
DISCID=c30aba10
DTITLE=Louis Armstrong - High Society
DYEAR=1995
DGENRE=Blues
TTITLE0=Savoy Blues
TTITLE1=St James Infirmary
TTITLE2=Ain't Misbehavin'
TTITLE3=Rockin' Chair
TTITLE4=Sweethearts On Parade
TTITLE5=You Rascal, You
TTITLE6=Lazy River
TTITLE7=That's My Home
TTITLE8=I've Got The World On A String
TTITLE9=I Gotta Right To Sing The Blues
TTITLE10=High Society
TTITLE11=Basin Street Blues
TTITLE12=Mahogany Hall Stomp
TTITLE13=Sweet Sue, Just You
TTITLE14=St Louis Blues
TTITLE15=Swing That Music
EXTD=
EXTT0=
EXTT1=
EXTT2=
EXTT3=
EXTT4=
EXTT5=
EXTT6=
EXTT7=
EXTT8=
EXTT9=
EXTT10=
EXTT11=
EXTT12=
EXTT13=
EXTT14=
EXTT15=
PLAYORDER=
